<?xml version="1.0" encoding="UTF-8"?>
<svg version="1.1" xmlns="http://www.w3.org/2000/svg" width="1024" height="1024">
<path d="M0 0 C337.92 0 675.84 0 1024 0 C1024 337.92 1024 675.84 1024 1024 C686.08 1024 348.16 1024 0 1024 C0 686.08 0 348.16 0 0 Z " fill="#FEFEFE" transform="translate(0,0)"/>
<path d="M0 0 C0.71295056 -0.00438225 1.42590112 -0.00876451 2.16045624 -0.01327956 C4.54993111 -0.02663579 6.93936913 -0.03283937 9.32887268 -0.03897095 C11.04233973 -0.0468747 12.75580514 -0.05514382 14.4692688 -0.06375122 C20.09896765 -0.08994952 25.72867383 -0.10528116 31.3584137 -0.11953735 C33.29966295 -0.12489878 35.24091216 -0.13027629 37.18216133 -0.13566971 C45.26224721 -0.1572992 53.34233112 -0.17603259 61.42243862 -0.1872921 C72.98216803 -0.20350849 84.54156011 -0.23662933 96.10116237 -0.29369295 C104.23895845 -0.33248676 112.37666467 -0.3519362 120.51455075 -0.35721266 C125.36922329 -0.36085447 130.22353588 -0.37274993 135.07810783 -0.4053154 C139.65255033 -0.43556091 144.22641819 -0.4416496 148.80093956 -0.42993164 C150.47095134 -0.42971225 152.14099107 -0.4379049 153.81090927 -0.45558548 C169.43183533 -0.61183871 181.36568221 2.86899997 192.83106995 14.00546265 C199.11793422 20.67881448 204.16010023 28.38511183 209.36476135 35.90438843 C213.32105131 41.60912327 217.33971098 47.27025887 221.35548401 52.93319702 C222.44208412 54.47080041 223.52449194 56.0113718 224.60353088 57.55429077 C226.30648412 59.98929148 228.02100242 62.41580714 229.73731995 64.84140015 C230.25221985 65.58381958 230.76711975 66.32623901 231.29762268 67.09115601 C238.50368602 77.21062856 246.63718574 82.64911234 258.87555122 84.75126648 C263.94820512 85.42107338 268.98031495 85.44568577 274.09059143 85.44100952 C275.25310425 85.44784256 276.41561707 85.4546756 277.61335754 85.4617157 C280.11881032 85.4752265 282.62429007 85.48432908 285.12977409 85.48942566 C289.10361099 85.49777132 293.07729135 85.51805175 297.05105591 85.54196167 C305.48810508 85.59066624 313.92518908 85.62315346 322.36231995 85.65390015 C331.47164991 85.68710639 340.58091437 85.7232469 349.69014412 85.77803087 C354.25978929 85.80487398 358.82933859 85.81683933 363.39904785 85.82614136 C365.809253 85.83912364 368.21945533 85.85264539 370.62965393 85.86679077 C371.70066849 85.86580887 372.77168304 85.86482697 373.87515259 85.86381531 C392.15827864 86.01229623 407.48892632 90.70629363 421.1396637 103.17733765 C433.27663912 115.71033722 436.22974429 130.3648713 436.19897461 147.16879272 C436.20343085 148.70284727 436.20874616 150.23689951 436.21484333 151.77094841 C436.22898781 155.97478868 436.2306873 160.17855488 436.23024642 164.38241553 C436.2318978 168.9211528 436.24497042 173.45985983 436.25643921 177.99858093 C436.27926481 187.91828622 436.28720739 197.83797007 436.29226565 207.75769806 C436.29552591 213.9563987 436.30205044 220.15509315 436.30926704 226.35379028 C436.32883083 243.52967122 436.34523599 260.70554641 436.34814358 277.88143921 C436.34833115 278.98005224 436.34851872 280.07866528 436.34871197 281.21056962 C436.34907821 283.43755881 436.34944191 285.664548 436.34980308 287.89153719 C436.34998589 288.99695974 436.3501687 290.10238229 436.35035706 291.24130249 C436.35062788 292.90146999 436.35062788 292.90146999 436.35090417 294.59517622 C436.35444391 312.5188237 436.38145479 330.44235088 436.41885494 348.36595666 C436.45698103 366.78549575 436.47630137 385.20497523 436.47660309 403.62455463 C436.47718674 413.95931729 436.48561877 424.29393649 436.51460075 434.62866211 C436.53917234 443.43093691 436.5463587 452.23301594 436.53135323 461.03531581 C436.52420759 465.52143716 436.52493976 470.00717238 436.54776382 474.49324989 C436.56850984 478.61057055 436.56560977 482.72721209 436.54488898 486.84452665 C436.54142364 488.32370623 436.54617669 489.80293639 436.56059342 491.28204978 C436.71982433 508.76364489 431.8470684 523.86744027 419.79981995 536.84140015 C410.88591854 545.27183572 400.78724275 550.3011164 388.92481995 553.15390015 C388.24921396 553.33039209 387.57360798 553.50688403 386.87752908 553.68872422 C382.52098158 554.37506376 378.21020024 554.29490489 373.80647373 554.28812122 C372.25671694 554.29164957 372.25671694 554.29164957 370.67565194 554.29524919 C367.19103492 554.30194069 363.70645518 554.30148092 360.22183228 554.30107117 C357.7072411 554.3043697 355.19265044 554.30809524 352.67806047 554.31221265 C346.47729481 554.32118918 340.27654031 554.3254605 334.07576904 554.32773161 C326.64949103 554.33069401 319.2232225 554.33939168 311.79694945 554.34814589 C293.84606083 554.36899039 275.89517056 554.37946033 257.94427266 554.3882755 C249.45153274 554.39248224 240.95879353 554.39770421 232.46605421 554.40296003 C203.39270803 554.42085075 174.31936164 554.43584639 145.24601078 554.44328022 C143.42074512 554.44375498 141.59547947 554.44423087 139.77021381 554.44470788 C138.41246556 554.44506245 138.41246556 554.44506245 137.02728805 554.44542417 C132.44129282 554.44662537 127.85529759 554.44784082 123.26930237 554.44906616 C122.35919854 554.44930631 121.44909471 554.44954646 120.51141198 554.44979389 C91.00805932 554.45768565 61.50474688 554.48111469 32.00141178 554.51362211 C0.80688734 554.54793014 -30.38761358 554.56763229 -61.58215719 554.57092446 C-65.0075665 554.571342 -68.43297579 554.57182156 -71.85838509 554.57234764 C-72.70181361 554.57247083 -73.54524213 554.57259402 -74.41422909 554.57272095 C-87.98026539 554.57505182 -101.54625495 554.59070553 -115.1122746 554.61118949 C-128.7526874 554.63145874 -142.39304412 554.63691959 -156.03346919 554.62741885 C-164.13347206 554.62220809 -172.23328807 554.62806121 -180.333264 554.64995352 C-186.38761087 554.66507786 -192.4417485 554.65920329 -198.4961061 554.64528301 C-200.94101104 554.642902 -203.38593401 554.64725592 -205.83081137 554.65911166 C-226.61357264 554.75363085 -243.96509067 552.58855642 -259.72361755 537.63046265 C-269.55326992 527.27830384 -276.19061784 515.19759331 -276.20660782 500.73128414 C-276.21044896 499.42593934 -276.21429011 498.12059454 -276.21824765 496.77569383 C-276.21746745 495.32875942 -276.21658867 493.88182505 -276.21562195 492.43489075 C-276.21820621 490.89645169 -276.22121954 489.3580133 -276.22462535 487.81957585 C-276.23269158 483.58984798 -276.23448471 479.36013709 -276.23522282 475.13040245 C-276.23707406 470.56920471 -276.24462181 466.00801577 -276.25135803 461.44682312 C-276.26493982 451.47142621 -276.270966 441.49603331 -276.27536869 431.52062869 C-276.27813171 425.29065348 -276.28236921 419.06067981 -276.28687286 412.83070564 C-276.29906597 395.57858979 -276.30936479 378.32647519 -276.31274796 361.07435513 C-276.31296752 359.97016287 -276.31318709 358.86597061 -276.31341331 357.72831798 C-276.31363158 356.62149344 -276.31384986 355.51466891 -276.31407475 354.37430423 C-276.31451822 352.13148399 -276.31496478 349.88866375 -276.31541443 347.64584351 C-276.31563586 346.53332881 -276.31585729 345.42081412 -276.31608543 344.27458686 C-276.32003208 326.25431706 -276.33748189 308.23408773 -276.36077395 290.21383356 C-276.38449966 271.70853264 -276.39695038 253.20325202 -276.39811587 234.69793564 C-276.39903202 224.3096379 -276.40476892 213.92139287 -276.42293549 203.53310966 C-276.438353 194.68566999 -276.44344723 185.83829933 -276.43519738 176.99084877 C-276.43129657 172.47900671 -276.43219264 167.96730355 -276.44625473 163.45547867 C-276.45902786 159.31927403 -276.45776634 155.18331217 -276.44566402 151.0471077 C-276.4437129 149.55647245 -276.44675823 148.0658198 -276.45550838 146.57520895 C-276.55050493 129.28782286 -272.7993123 114.24791904 -260.55955505 101.47421265 C-250.97951868 92.52682019 -240.18009806 85.91250124 -226.76268005 86.09140015 C-225.87967224 86.10042358 -224.99666443 86.10944702 -224.0868988 86.1187439 C-223.42303162 86.13034546 -222.75916443 86.14194702 -222.07518005 86.15390015 C-222.15768005 85.04015015 -222.24018005 83.92640015 -222.32518005 82.77890015 C-222.3012188 76.03380827 -219.97834861 70.23832285 -215.45018005 65.27890015 C-206.37680389 59.56603367 -198.47738069 58.56428858 -187.8525238 58.6578064 C-186.49832074 58.65765098 -185.14411725 58.65615497 -183.78991699 58.65339661 C-180.96837915 58.65202124 -178.14735496 58.66442521 -175.32591248 58.68734741 C-171.73288922 58.7157576 -168.14071579 58.71297599 -164.54762936 58.7002573 C-161.75667219 58.69326039 -158.96590706 58.70113428 -156.17497444 58.71351433 C-154.21373712 58.72014178 -152.2524726 58.71591437 -150.29122925 58.71141052 C-142.12598164 58.79712339 -134.76043844 59.12379881 -128.26268005 64.46640015 C-123.95360239 69.76040985 -120.91199648 73.8942333 -121.01268005 80.84140015 C-121.02170349 81.64964233 -121.03072693 82.45788452 -121.0400238 83.2906189 C-121.05742615 84.21294312 -121.05742615 84.21294312 -121.07518005 85.15390015 C-97.21571804 84.88402108 -97.21571804 84.88402108 -77.07518005 73.15390015 C-74.56629786 70.43583548 -72.34130193 67.55981221 -70.13768005 64.59140015 C-69.5363324 63.79983521 -68.93498474 63.00827026 -68.31541443 62.19271851 C-64.00623808 56.49064804 -59.82620066 50.699058 -55.7040863 44.8609314 C-24.05706836 0.1049494 -24.05706836 0.1049494 0 0 Z " fill="#283643" transform="translate(433.07518005371094,226.84609985351563)"/>
<path d="M0 0 C23.8304252 20.82412541 38.34605493 48.80244291 40.54052734 80.51171875 C42.06206585 112.37064768 32.24910668 142.75052378 10.75292969 166.55126953 C-10.57911882 189.61477548 -39.3015907 203.75885822 -70.828125 205.09765625 C-105.24332453 205.99037182 -134.94406143 194.48128905 -160.28100586 171.14257812 C-182.13177881 150.244026 -194.13816665 119.78376994 -194.93408203 89.87524414 C-195.23891763 62.559203 -186.25852972 35.80437313 -168.6484375 14.78125 C-167.81570313 13.78480469 -166.98296875 12.78835938 -166.125 11.76171875 C-123.69490198 -37.41432354 -48.84066933 -40.91666694 0 0 Z " fill="#FDFDFD" transform="translate(589.6484375,451.21875)"/>
<path d="M0 0 C31.30428139 26.90561894 52.39896316 65.15234123 56.25 106.5 C58.26116923 139.87418811 52.94930164 172.14871515 36.25 201.5 C35.61320312 202.6240625 34.97640625 203.748125 34.3203125 204.90625 C12.96222031 240.93194767 -20.48345258 266.98607621 -60.59863281 278.86132812 C-62.33166669 279.37581027 -64.05446331 279.92470899 -65.7734375 280.484375 C-103.92225677 292.27801629 -147.68597273 285.39930442 -182.75 267.5 C-196.8273106 260.03753357 -209.18152704 250.42367283 -220.75 239.5 C-221.53632813 238.778125 -222.32265625 238.05625 -223.1328125 237.3125 C-249.70507434 212.02185851 -265.12496538 176.51162277 -269.75 140.5 C-269.89139404 139.41344116 -269.89139404 139.41344116 -270.03564453 138.30493164 C-274.86058591 98.52721728 -262.59309283 56.73646482 -237.98046875 25.21875 C-234.37992241 20.82999299 -230.66140639 16.61444123 -226.75 12.5 C-226.24871582 11.96616699 -225.74743164 11.43233398 -225.23095703 10.88232422 C-165.43936712 -52.44849881 -65.94208113 -55.36094932 0 0 Z M-182.75 33.5 C-183.60980469 34.20769531 -184.46960938 34.91539062 -185.35546875 35.64453125 C-207.88111527 55.02706431 -221.89284228 83.0374811 -224.75 112.5 C-227.17168659 146.21408889 -215.80547698 176.70646447 -193.86352539 202.09155273 C-180.7362421 216.85475172 -163.98344951 226.33283443 -145.75 233.5 C-144.98558594 233.80679688 -144.22117187 234.11359375 -143.43359375 234.4296875 C-116.33940095 244.40364083 -83.73384044 241.34448567 -57.75 229.5 C-28.44457585 215.96414443 -7.69128735 192.24254302 4.25 162.5 C6.00316476 157.59157209 7.21327032 152.60529094 8.25 147.5 C8.47171875 146.58347656 8.6934375 145.66695312 8.921875 144.72265625 C14.83321367 116.88344645 8.31425808 85.40989191 -6.75 61.5 C-26.30649522 32.58283359 -52.43922207 15.03161545 -86.23046875 7.75 C-120.71894302 1.81649905 -155.87565949 11.21491011 -182.75 33.5 Z " fill="#283542" transform="translate(619.75,416.5)"/>
<path d="M0 0 C2.37601279 -0.00966645 4.75114319 -0.04078491 7.12695312 -0.07226562 C21.99756418 -0.17561454 36.22464683 2.10003429 50.58789062 5.92773438 C51.54663086 6.18264648 52.50537109 6.43755859 53.49316406 6.70019531 C77.7494864 13.36769672 99.23465609 24.10366223 119.27539062 39.24023438 C120.21125 39.93117188 121.14710938 40.62210937 122.11132812 41.33398438 C136.14481813 52.21533663 149.2135862 65.60319171 159.27539062 80.24023438 C160.00371094 81.28566406 160.73203125 82.33109375 161.48242188 83.40820312 C177.13727674 106.4808609 187.24180981 131.87047515 192.27539062 159.24023438 C192.40671387 159.94857422 192.53803711 160.65691406 192.67333984 161.38671875 C200.78925328 207.87394242 188.59496283 258.99031193 162.55664062 298.00195312 C156.03695147 307.25678584 149.0744864 316.01822113 141.27539062 324.24023438 C140.8185791 324.72959473 140.36176758 325.21895508 139.89111328 325.72314453 C109.1129232 358.52393058 63.28658351 380.36016293 18.27539062 383.24023438 C13.47372003 383.38183017 8.6770841 383.42606579 3.87353516 383.42553711 C1.67525442 383.4277098 -0.52251153 383.44588958 -2.72070312 383.46484375 C-31.32638612 383.57815499 -59.07549603 376.76534024 -84.72460938 364.24023438 C-85.43713867 363.89621582 -86.14966797 363.55219727 -86.88378906 363.19775391 C-102.37689201 355.63455276 -116.18724693 346.08236415 -128.72460938 334.24023438 C-130.0127164 333.15267096 -131.30430471 332.06921525 -132.59960938 330.99023438 C-161.59416027 305.55437081 -180.10824747 268.36745015 -188.72460938 231.24023438 C-188.88977051 230.54075684 -189.05493164 229.8412793 -189.22509766 229.12060547 C-191.95315279 216.87962178 -192.00973564 204.53213459 -192.03710938 192.05273438 C-192.04078522 191.25025269 -192.04446106 190.447771 -192.04824829 189.62097168 C-192.08437328 174.49484089 -191.10859652 159.64657201 -187.09960938 144.99023438 C-186.71047363 143.54535645 -186.71047363 143.54535645 -186.31347656 142.07128906 C-176.94716558 108.40319822 -159.54006107 80.5331587 -135.72460938 55.24023438 C-135.06847656 54.52996094 -134.41234375 53.8196875 -133.73632812 53.08789062 C-99.52174657 17.26148724 -48.53854115 0.11867614 0 0 Z M-111.72460938 74.24023438 C-112.24780762 74.72556641 -112.77100586 75.21089844 -113.31005859 75.7109375 C-143.6422566 103.96846569 -161.27607142 143.64765866 -162.94726562 184.98242188 C-164.11179649 230.49428202 -146.59860699 272.68798259 -115.59179688 305.59570312 C-91.7283196 330.38897325 -60.37806584 345.96752451 -26.72460938 352.24023438 C-25.62761719 352.46582031 -24.530625 352.69140625 -23.40039062 352.92382812 C9.17290416 358.73333334 44.94727074 352.09563121 74.27539062 337.24023438 C74.92378906 336.9132959 75.5721875 336.58635742 76.24023438 336.24951172 C114.86088009 316.42161198 143.41314361 281.89088722 157.06152344 240.87792969 C158.69102113 235.71601616 160.04389372 230.50989553 161.27539062 225.24023438 C161.52095703 224.2425 161.52095703 224.2425 161.77148438 223.22460938 C171.06951519 184.18824859 161.70315805 141.09320594 141.27539062 107.24023438 C118.21484736 70.52840811 81.81013475 43.58692002 39.53735352 33.57836914 C35.79611424 32.73235631 32.0391325 31.97844887 28.27539062 31.24023438 C27.17324219 31.01207031 26.07109375 30.78390625 24.93554688 30.54882812 C-24.32619207 21.84125251 -75.99815032 40.3339006 -111.72460938 74.24023438 Z " fill="#FDFDFD" transform="translate(511.724609375,347.759765625)"/>
<path d="M0 0 C18.21890003 14.51933714 29.55737204 34.45310349 32.3203125 57.69140625 C33.48336041 80.08007848 27.92800341 102.0948011 12.7578125 119.12890625 C11.28791378 120.65869898 9.80952759 122.18041105 8.3203125 123.69140625 C7.76988281 124.31402344 7.21945312 124.93664062 6.65234375 125.578125 C-5.18684489 138.58661622 -25.53166822 146.74333149 -42.94995117 147.83349609 C-67.87459176 148.81425195 -89.06467639 142.29842585 -107.9296875 125.37890625 C-123.11608233 111.21776354 -133.01983627 91.44638557 -134.0546875 70.65234375 C-134.79479503 45.05969599 -127.12845829 24.91627085 -109.4921875 6.00390625 C-79.44814415 -22.74065426 -32.87949505 -25.1947663 0 0 Z " fill="#283643" transform="translate(563.6796875,474.30859375)"/>
<path d="M0 0 C1.15847946 -0.01283524 2.31695892 -0.02567047 3.51054382 -0.03889465 C4.76881485 -0.04628159 6.02708588 -0.05366852 7.32348633 -0.0612793 C9.25868889 -0.07338692 9.25868889 -0.07338692 11.23298645 -0.08573914 C13.96928781 -0.10076979 16.7055632 -0.11060461 19.44189453 -0.11816406 C22.93448185 -0.12919925 26.42642687 -0.16356299 29.91878796 -0.20333576 C33.26199418 -0.23589582 36.60513385 -0.2402897 39.94848633 -0.2487793 C41.82071114 -0.27504143 41.82071114 -0.27504143 43.73075867 -0.30183411 C50.53336276 -0.28488572 54.99407969 -0.00931483 60.46801758 4.17700195 C65.71892099 10.18655862 65.0790125 17.31963597 64.98950195 24.9375 C64.96809786 27.10636666 64.98933434 29.2719096 65.01489258 31.44067383 C65.02963947 38.97779971 64.74540426 44.80880313 60.46801758 51.17700195 C56.41323323 55.10507429 52.24647019 55.30042053 46.78491211 55.35400391 C45.64337677 55.36683914 44.50184143 55.37967438 43.32571411 55.39289856 C42.09650238 55.40028549 40.86729065 55.40767242 39.60083008 55.4152832 C37.69960892 55.42739082 37.69960892 55.42739082 35.75997925 55.43974304 C33.07847447 55.45357182 30.39709213 55.46459226 27.71557617 55.47216797 C24.29020462 55.48323524 20.86548216 55.5176512 17.44034004 55.55733967 C14.16056818 55.58984861 10.88073849 55.59428724 7.60083008 55.6027832 C5.76308517 55.62904533 5.76308517 55.62904533 3.88821411 55.65583801 C-2.54050418 55.63945275 -6.70042428 55.61312158 -11.53198242 51.17700195 C-17.40659429 44.66729691 -16.74958482 38.34440784 -16.7722168 30.03564453 C-16.78190148 27.88249774 -16.81292694 25.73031463 -16.84448242 23.57739258 C-16.85101531 22.19784092 -16.85626466 20.81828247 -16.86010742 19.4387207 C-16.86945312 18.19050537 -16.87879883 16.94229004 -16.88842773 15.65625 C-16.43245993 11.20556699 -15.06672561 7.82109071 -11.99682617 4.5324707 C-7.57339416 1.14984622 -5.52714303 0.0532092 0 0 Z " fill="#FEFEFE" transform="translate(752.531982421875,361.822998046875)"/>
<path d="M0 0 C8.04923983 -0.04628835 16.09842429 -0.08185126 24.14776421 -0.10362434 C27.8851783 -0.11407298 31.6225015 -0.1282517 35.35986328 -0.15087891 C38.964905 -0.17256904 42.56985917 -0.18456049 46.17496109 -0.18975449 C47.55211898 -0.19345716 48.92927194 -0.20068734 50.30639267 -0.21146011 C52.23139545 -0.22592335 54.15648587 -0.22681648 56.08154297 -0.22705078 C57.17852509 -0.231492 58.2755072 -0.23593323 59.4057312 -0.24050903 C62 0 62 0 64 2 C63 3 63 3 60.45005798 3.12025452 C58.74795921 3.1169236 58.74795921 3.1169236 57.01147461 3.11352539 C55.73022202 3.11344986 54.44896942 3.11337433 53.12889099 3.11329651 C51.72004152 3.10818909 50.31119244 3.10297309 48.90234375 3.09765625 C47.46887766 3.09579202 46.03541093 3.09436814 44.60194397 3.09336853 C40.82240043 3.08954372 37.0428951 3.07971377 33.2633667 3.06866455 C29.40930702 3.05844963 25.55524118 3.05387074 21.70117188 3.04882812 C14.13409713 3.03809146 6.56705391 3.02101549 -1 3 C-0.67 2.01 -0.34 1.02 0 0 Z M-4 3 C-1 4 -1 4 -1 4 Z " fill="#313B47" transform="translate(231,286)"/>
<path d="M0 0 C0 4.23358819 -2.42360291 6.02458663 -5.1875 8.9375 C-5.91163086 9.72543945 -5.91163086 9.72543945 -6.65039062 10.52929688 C-9.56663913 13.65692447 -12.58302639 16.40759772 -16 19 C-16.66 18.67 -17.32 18.34 -18 18 C-12.06 12.06 -6.12 6.12 0 0 Z " fill="#17202D" transform="translate(657,667)"/>
<path d="M0 0 C0 3 0 3 -2.0625 5.3125 C-5.31276423 8.286146 -8.62482514 11.16952195 -12 14 C-10.41332422 10.09714233 -7.86649519 7.66479018 -4.875 4.75 C-3.96492188 3.85796875 -3.05484375 2.9659375 -2.1171875 2.046875 C-1.41851562 1.37140625 -0.71984375 0.6959375 0 0 Z " fill="#121A25" transform="translate(399,423)"/>
<path d="M0 0 C0 3.61029169 -0.96092582 6.55806676 -2 10 C-2.66 10 -3.32 10 -4 10 C-4.66 10.66 -5.32 11.32 -6 12 C-5.54300722 6.97307937 -3.00758252 3.85103739 0 0 Z " fill="#19222D" transform="translate(168,334)"/>
</svg>
